   General
      Format : AVI
      Format/Info : Audio Video Interleave
      File size : 699 MiB
      Duration : 1h 42mn
      Overall bit rate mode : Variable
      Overall bit rate : 955 Kbps
      Movie name : High Heels und Nylonfetisch 2
      Encoded by : GePi
      Law rating : Unrated
      Writing application : VirtualDubMod 1.5.10.2 (build 2540/release) VirtualDubMod build 2540/release
      Original source form/Name : Movie
      Comment : downloaded from avatar-bg.org
   Video #0
      ID : 0
      Format : MPEG-4 Visual
      Format profile : Advanced Simple@L5
      Format settings, BVOP : 1
      Format settings, QPel : No
      Format settings, GMC : No warppoints
      Format settings, Matrix : Default (H.263)
      Codec ID : XVID
      Codec ID/Hint : XviD
      Duration : 1h 42mn
      Bit rate : 822 Kbps
      Width : 576 pixels
      Height : 320 pixels
      Display aspect ratio : 16:9
      Frame rate : 25.000 fps
      Color space : YUV
      Chroma subsampling : 4:2:0
      Bit depth : 8 bits
      Scan type : Progressive
      Compression mode : Lossy
      Bits/(Pixel*Frame) : 0.178
      Stream size : 602 MiB (86%)
      Writing library : XviD 1.2.1 (UTC 2008-12-04)
   Audio #1
      ID : 1
      Format : MPEG Audio
      Format version : Version 1
      Format profile : Layer 3
      Mode : Joint stereo
      Mode extension : MS Stereo
      Codec ID : 55
      Codec ID/Hint : MP3
      Duration : 1h 42mn
      Bit rate mode : Variable
      Bit rate : 120 Kbps
      Nominal bit rate : 128 Kbps
      Channel(s) : 2 channels
      Sampling rate : 48.0 KHz
      Compression mode : Lossy
      Delay relative to video : 480ms
      Stream size : 88.2 MiB (13%)
      Alignment : Split accross interleaves
      Interleave, duration : 24 ms (0.60 video frame)
      Interleave, preload duration : 1556 ms
      Writing library : LAME3.90.
      Encoding settings : -m j -V 4 -q 2 -lowpass 17.6 --abr 128
      Language : Undefined

GePi
@@2012-2013@@
#NoOne left
#Greetz all riperz
#Greetz all HD2DVD makerz
#Greetz all P2P groups

....and don't forget to kiss the bride!


SCREENS HERE =&gt;&gt; http://bayimg.com/lAjlLaaEg